<svg width="67" height="32" viewBox="0 0 67 32" fill="none" xmlns="http://www.w3.org/2000/svg">
<path fill-rule="evenodd" clip-rule="evenodd" d="M1.44813 4.36143H5.65404C5.27729 4.10859 4.56803 3.78662 3.40054 3.78662C2.55548 3.78662 1.92265 4.01884 1.44813 4.36143ZM6.36019 4.36143H10.7593C10.241 4.01884 9.5154 3.78662 8.50195 3.78662C7.43184 3.78662 6.73927 4.10859 6.36019 4.36143ZM0.854492 4.93625H11.3879C11.211 4.71271 10.9988 4.51862 10.7593 4.36143H6.36019C6.11537 4.52452 6.00129 4.65858 6.00129 4.65858C6.00129 4.65858 5.89653 4.52452 5.65404 4.36143H1.44813C1.22378 4.5246 1.02393 4.71812 0.854492 4.93625Z" fill="#CCCCCC"/>
<path fill-rule="evenodd" clip-rule="evenodd" d="M0.502441 5.49197H11.73C11.6381 5.29464 11.5234 5.10842 11.3881 4.93701H0.854356C0.714677 5.11576 0.598665 5.30405 0.502441 5.49197Z" fill="#CCCCCC"/>
<path fill-rule="evenodd" clip-rule="evenodd" d="M0.262346 6.06603H11.9345C11.8843 5.86863 11.8157 5.67621 11.7296 5.49121H0.502518C0.402414 5.68676 0.324038 5.88193 0.262346 6.06603ZM0.109863 6.64122H2.79636C2.96941 6.44338 3.25459 6.26463 3.72058 6.26463C4.18695 6.26463 4.45234 6.44376 4.60288 6.64122H7.58038C7.75615 6.44338 8.04637 6.26463 8.52128 6.26463C8.9698 6.26463 9.23713 6.44376 9.39621 6.64122H12.0331C12.0151 6.44739 11.9821 6.25522 11.9341 6.06641H0.262346C0.199581 6.25475 0.148657 6.44671 0.109863 6.64122Z" fill="#CCCCCC"/>
<path fill-rule="evenodd" clip-rule="evenodd" d="M0.0397383 7.19607H2.54039V7.15635C2.54039 7.15635 2.58307 6.88479 2.79647 6.64111H0.109966C0.0486622 6.95086 0.0397383 7.15635 0.0397383 7.15635V7.19607ZM4.80126 7.19607H7.32209V7.15635C7.32209 7.15635 7.36516 6.88479 7.58128 6.64111H4.60377C4.71632 6.79183 4.78476 6.97003 4.80165 7.15635V7.19607H4.80126ZM9.62215 7.19607H12.0429V7.15635C12.0429 7.15635 12.0623 6.95048 12.0336 6.64111H9.39672C9.5915 6.88479 9.62215 7.15635 9.62215 7.15635V7.19607ZM0.0385742 7.77088H2.54039V7.19607H0.0397383L0.0385742 7.77088ZM4.80126 7.77088H7.32209V7.19607H4.80126V7.77088ZM9.62215 7.77088H12.0429V7.19607H9.62215V7.77088Z" fill="#CCCCCC"/>
<path fill-rule="evenodd" clip-rule="evenodd" d="M0.0371964 8.34679H2.54056V7.77197H0.0387487L0.0371964 8.34679ZM4.80104 8.34679H7.32187V7.77197H4.80104V8.34679ZM9.62193 8.34679H12.0426V7.77197H9.62193V8.34679ZM0.0356445 8.90174H2.54018V8.34679H0.0368086L0.0356445 8.90174ZM4.80104 8.90174H7.32187V8.34679H4.80104V8.90174ZM9.62193 8.90174H12.0426V8.34679H9.62193V8.90174Z" fill="#CCCCCC"/>
<path fill-rule="evenodd" clip-rule="evenodd" d="M0.0348555 9.4757H2.54055V8.90088H0.0356314L0.0348555 9.4757ZM4.80103 9.4757H7.32186V8.90088H4.80103V9.4757ZM9.62191 9.4757H12.0426V8.90088H9.62191V9.4757ZM0.0336914 10.0307H2.54055V9.4757H0.0348555L0.0336914 10.0307ZM4.80103 10.0307H7.32186V9.4757H4.80103V10.0307ZM9.62191 10.0307H12.0426V9.4757H9.62191V10.0307Z" fill="#CCCCCC"/>
<path fill-rule="evenodd" clip-rule="evenodd" d="M0.0324141 10.606H2.54044V10.0308H0.0335782L0.0324141 10.606ZM4.8013 10.606H7.32213V10.0308H4.8013V10.606ZM9.62219 10.606H12.0429V10.0308H9.62219V10.606ZM0.03125 11.1808H2.54082V10.606H0.0328019L0.03125 11.1808ZM4.8013 11.1808H7.32213V10.606H4.8013V11.1808ZM9.62219 11.1808H12.0429V10.606H9.62219V11.1808Z" fill="#CCCCCC"/>
<path fill-rule="evenodd" clip-rule="evenodd" d="M0.0297852 11.7356H2.54053V11.1807H0.0309493L0.0297852 11.7356ZM4.80101 11.7356H7.32184V11.1807H4.80101V11.7356ZM9.62189 11.7356H12.0426V11.1807H9.62189V11.7356Z" fill="#CCCCCC"/>
<path fill-rule="evenodd" clip-rule="evenodd" d="M0.0288086 12.311H2.54071V11.7358H0.0299723L0.0288086 12.311ZM4.80119 12.311H7.32202V11.7358H4.80119V12.311ZM9.62208 12.311H12.0428V11.7358H9.62208V12.311Z" fill="#CCCCCC"/>
<path fill-rule="evenodd" clip-rule="evenodd" d="M0.0273438 12.8854H2.5408V12.3105H0.028896L0.0273438 12.8854ZM4.80128 12.8854H7.3221V12.3105H4.80128V12.8854ZM9.62216 12.8854H12.0429V12.3105H9.62216V12.8854Z" fill="#CCCCCC"/>
<path fill-rule="evenodd" clip-rule="evenodd" d="M0.0265413 13.4407H2.54077V12.8857H0.0273172L0.0265413 13.4407ZM4.80125 13.4407H7.32208V12.8857H4.80125V13.4407ZM9.62214 13.4407H12.0429V12.8857H9.62214V13.4407ZM0.0249894 14.0155H2.54039V13.4407H0.0261535L0.0249894 14.0155ZM4.80125 14.0155H7.32208V13.4407H4.80125V14.0155ZM9.62214 14.0155H12.0429V13.4407H9.62214V14.0155ZM0.0234375 14.5907H2.54039V14.0159H0.0249894L0.0234375 14.5907ZM4.80125 14.5907H7.32208V14.0159H4.80125V14.5907ZM9.62214 14.5907H12.0429V14.0159H9.62214V14.5907Z" fill="#CCCCCC"/>
<path fill-rule="evenodd" clip-rule="evenodd" d="M0.0221602 15.1453H2.54027V14.5903H0.0233243L0.0221602 15.1453ZM4.80114 15.1453H7.32196V14.5903H4.80114V15.1453ZM9.62202 15.1453H12.0427V14.5903H9.62202V15.1453ZM0.0209961 15.7201H2.54027V15.1453H0.0221602L0.0209961 15.7201ZM4.80114 15.7201H7.32196V15.1453H4.80114V15.7201ZM9.62202 15.7201H12.0427V15.1453H9.62202V15.7201Z" fill="#CCCCCC"/>
<path fill-rule="evenodd" clip-rule="evenodd" d="M0.0195312 16.295H2.54036V15.7202H0.0210835L0.0195312 16.295ZM4.80084 16.295H7.32167V15.7202H4.80084V16.295ZM9.62173 16.295H12.0424V15.7202H9.62173V16.295Z" fill="#CCCCCC"/>
<path fill-rule="evenodd" clip-rule="evenodd" d="M0.0187422 16.8499H2.54074V16.2949H0.019906L0.0187422 16.8499ZM4.80122 16.8499H7.32205V16.2949H4.80122V16.8499ZM9.62211 16.8499H12.0428V16.2949H9.62211V16.8499ZM0.0175781 17.4251H2.54074V16.8499H0.0187422L0.0175781 17.4251ZM4.80122 17.4251H7.32205V16.8499H4.80122V17.4251ZM9.62211 17.4251H12.0428V16.8499H9.62211V17.4251Z" fill="#CCCCCC"/>
<path fill-rule="evenodd" clip-rule="evenodd" d="M0.0160001 17.9803H2.54032V17.4253H0.0171638L0.0160001 17.9803ZM4.80119 17.9803H7.32202V17.4253H4.80119V17.9803ZM9.62208 17.9803H12.0428V17.4253H9.62208V17.9803ZM0.014836 18.5555H2.54071V17.9803H0.0163879L0.014836 18.5555ZM4.80119 18.5555H7.32202V17.9803H4.80119V18.5555ZM9.62208 18.5555H12.0428V17.9803H9.62208V18.5555ZM0.0136719 19.1299H2.54071V18.5555H0.014836L0.0136719 19.1299ZM4.80119 19.1299H7.32202V18.5555H4.80119V19.1299ZM9.62208 19.1299H12.0428V18.5555H9.62208V19.1299Z" fill="#CCCCCC"/>
<path fill-rule="evenodd" clip-rule="evenodd" d="M0.0119063 19.6856H2.5405V19.1299H0.0134582L0.0119063 19.6856ZM4.80098 19.6856H7.32181V19.1299H4.80098V19.6856ZM9.62186 19.6856H12.0426V19.1299H9.62186V19.6856ZM0.0107422 20.26H2.54011V19.6856H0.0115181L0.0107422 20.26ZM4.80098 20.26H7.32181V19.6856H4.80098V20.26ZM9.62186 20.26H12.0426V19.6856H9.62186V20.26Z" fill="#CCCCCC"/>
<path fill-rule="evenodd" clip-rule="evenodd" d="M0.00985266 20.835H2.54038V20.2598H0.0110168L0.00985266 20.835ZM4.80125 20.835H7.32207V20.2598H4.80125V20.835ZM9.62212 20.835H12.0428V20.2598H9.62212V20.835ZM0.00830078 21.3903H2.54038V20.8353H0.00985266L0.00830078 21.3903ZM4.80125 21.3903H7.32207V20.8353H4.80125V21.3903ZM9.62212 21.3903H12.0428V20.8353H9.62212V21.3903Z" fill="#CCCCCC"/>
<path fill-rule="evenodd" clip-rule="evenodd" d="M0.00732422 21.9653H2.54057V21.3901H0.00848831L0.00732422 21.9653ZM4.80105 21.9653H7.32187V21.3901H4.80105V21.9653ZM9.62193 21.9653H12.0426V21.3901H9.62193V21.9653Z" fill="#CCCCCC"/>
<path fill-rule="evenodd" clip-rule="evenodd" d="M0.00555863 22.5393H2.53996V21.9648H0.00672235L0.00555863 22.5393ZM4.80083 22.5393H7.32166V21.9648H4.80083V22.5393ZM9.62171 22.5393H12.0424V21.9648H9.62171V22.5393ZM0.00439453 23.0942H2.53996V22.5393H0.00555863L0.00439453 23.0942ZM4.80083 23.0942H7.32166V22.5393H4.80083V23.0942ZM9.62171 23.0942H12.0424V22.5393H9.62171V23.0942Z" fill="#CCCCCC"/>
<path fill-rule="evenodd" clip-rule="evenodd" d="M0.00330439 23.6694H2.54004V23.0942H0.00446848L0.00330439 23.6694ZM4.80091 23.6694H7.32173V23.0942H4.80091V23.6694ZM9.62179 23.6694H12.0425V23.0942H9.62179V23.6694ZM0.00252844 24.2446H2.54043V23.6694H0.00369254L0.00252844 24.2446ZM4.80091 24.2446H7.32173V23.6694H4.80091V24.2446ZM9.62179 24.2446H12.0425V23.6694H9.62179V24.2446ZM0.000976562 24.7996H2.54043V24.2446H0.00252844L0.000976562 24.7996ZM4.80091 24.7996H7.32173V24.2446H4.80091V24.7996ZM9.62179 24.7996H12.0425V24.2446H9.62179V24.7996Z" fill="#CCCCCC"/>
<path fill-rule="evenodd" clip-rule="evenodd" d="M0 25.3742H2.54061V24.7998H0.0011641L0 25.3742ZM4.80109 25.3742H7.32192V24.7998H4.80109V25.3742ZM9.62197 25.3742H12.0427V24.7998H9.62197V25.3742Z" fill="#CCCCCC"/>
<path fill-rule="evenodd" clip-rule="evenodd" d="M30.668 3.54894H30.9982L30.668 2.97412V3.54894ZM30.668 4.14361H31.3404L30.9982 3.54894H30.668V4.14361Z" fill="#CCCCCC"/>
<path fill-rule="evenodd" clip-rule="evenodd" d="M30.668 4.73823H31.6822L31.3404 4.14355H30.668V4.73823ZM35.5692 4.73823H37.9297V4.16342H35.5692V4.73823Z" fill="#CCCCCC"/>
<path fill-rule="evenodd" clip-rule="evenodd" d="M30.668 5.33334H32.0244L31.6822 4.73828H30.668V5.33334ZM35.5692 5.33334H37.9297V4.73828H35.5692V5.33334Z" fill="#CCCCCC"/>
<path fill-rule="evenodd" clip-rule="evenodd" d="M30.668 5.90784H32.3546L32.0244 5.33301H30.668V5.90784ZM35.5692 5.90784H37.9297V5.33301H35.5692V5.90784Z" fill="#CCCCCC"/>
<path fill-rule="evenodd" clip-rule="evenodd" d="M30.668 6.50239H32.6968L32.3546 5.90771H30.668V6.50239ZM35.5692 6.50239H37.9297V5.90771H35.5692V6.50239ZM30.668 7.09706H33.0386L32.6968 6.50239H30.668V7.09706ZM35.5692 7.09706H37.9297V6.50239H35.5692V7.09706Z" fill="#CCCCCC"/>
<path fill-rule="evenodd" clip-rule="evenodd" d="M30.6679 7.69145H33.3808L33.0385 7.09717H30.6679V7.69145ZM35.5691 7.69145H37.9297V7.09717H35.5691V7.69145ZM30.6679 8.26665H33.7109L33.3804 7.69145H30.6675V8.26665H30.6679ZM35.5691 8.26665H37.9297V7.69145H35.5691V8.26665Z" fill="#CCCCCC"/>
<path fill-rule="evenodd" clip-rule="evenodd" d="M30.668 8.86176H34.0529L33.711 8.26709H30.668V8.86176ZM35.5692 8.86176H37.9297V8.26709H35.5692V8.86176ZM30.668 9.45644H34.3955L34.0529 8.86176H30.668V9.45644ZM35.5692 9.45644H37.9297V8.86176H35.5692V9.45644Z" fill="#CCCCCC"/>
<path fill-rule="evenodd" clip-rule="evenodd" d="M30.668 10.0511H34.7373L34.3955 9.45605H30.668V10.0511ZM35.5692 10.0511H37.9297V9.45605H35.5692V10.0511Z" fill="#CCCCCC"/>
<path fill-rule="evenodd" clip-rule="evenodd" d="M30.668 10.6256H35.0675L34.7369 10.0508H30.668V10.6256ZM35.5692 10.6256H37.9297V10.0508H35.5692V10.6256ZM30.668 11.2203H35.4093L35.0675 10.6256H30.668V11.2203ZM35.5692 11.2203H37.9297V10.6256H35.5692V11.2203Z" fill="#CCCCCC"/>
<path fill-rule="evenodd" clip-rule="evenodd" d="M30.668 11.8149H37.9297V11.2202H35.5692V11.4983L35.4093 11.2202H30.668V11.8149ZM30.668 12.4096H32.9882V11.8745L33.3382 12.4096H37.9297V11.8149H30.668V12.4096Z" fill="#CCCCCC"/>
<path fill-rule="evenodd" clip-rule="evenodd" d="M30.668 12.985H32.9882V12.4102H30.668V12.985ZM33.7134 12.985H37.9297V12.4102H33.3382L33.7134 12.985Z" fill="#CCCCCC"/>
<path fill-rule="evenodd" clip-rule="evenodd" d="M30.668 13.5795H32.9882V12.9849H30.668V13.5795ZM34.1021 13.5795H37.9297V12.9849H33.7134L34.1021 13.5795Z" fill="#CCCCCC"/>
<path fill-rule="evenodd" clip-rule="evenodd" d="M30.668 14.1738H32.9882V13.5791H30.668V14.1738ZM34.4909 14.1738H37.9297V13.5791H34.1021L34.4909 14.1738Z" fill="#CCCCCC"/>
<path fill-rule="evenodd" clip-rule="evenodd" d="M30.668 14.749H32.9882V14.1738H30.668V14.749ZM34.8661 14.749H37.9297V14.1738H34.4909L34.8661 14.749Z" fill="#CCCCCC"/>
<path fill-rule="evenodd" clip-rule="evenodd" d="M30.668 15.3437H32.9882V14.749H30.668V15.3437ZM35.2545 15.3437H37.9297V14.749H34.8661L35.2545 15.3437Z" fill="#CCCCCC"/>
<path fill-rule="evenodd" clip-rule="evenodd" d="M30.668 15.9384H32.9882V15.3438H30.668V15.9384ZM35.6433 15.9384H37.9297V15.3438H35.2545L35.6433 15.9384ZM30.668 16.5331H32.9882V15.9384H30.668V16.5331ZM35.6693 16.5331H37.9297V15.9384H35.6433L35.6689 15.9781V16.5331H35.6693ZM30.668 17.1083H32.9882V16.5331H30.668V17.1083ZM35.6693 17.1083H37.9297V16.5331H35.6693V17.1083Z" fill="#CCCCCC"/>
<path fill-rule="evenodd" clip-rule="evenodd" d="M30.668 17.7021H32.9882V17.1074H30.668V17.7021ZM35.6693 17.7021H37.9297V17.1074H35.6693V17.7021ZM30.668 18.2968H32.9882V17.7021H30.668V18.2968ZM35.6693 18.2968H37.9297V17.7021H35.6693V18.2968Z" fill="#CCCCCC"/>
<path fill-rule="evenodd" clip-rule="evenodd" d="M30.668 18.8923H32.9882V18.2969H30.668V18.8923ZM35.6693 18.8923H37.9297V18.2969H35.6693V18.8923Z" fill="#CCCCCC"/>
<path fill-rule="evenodd" clip-rule="evenodd" d="M30.668 19.467H32.9882V18.8926H30.668V19.467ZM35.6693 19.467H37.9297V18.8926H35.6693V19.467ZM30.668 20.0625H32.9882V19.467H30.668V20.0625ZM35.6693 20.0625H37.9297V19.467H35.6693V20.0625Z" fill="#CCCCCC"/>
<path fill-rule="evenodd" clip-rule="evenodd" d="M30.668 20.6572H32.9882V20.0625H30.668V20.6572ZM35.6693 20.6572H37.9297V20.0625H35.6693V20.6572Z" fill="#CCCCCC"/>
<path fill-rule="evenodd" clip-rule="evenodd" d="M30.668 21.2509H32.9882V20.6562H30.668V21.2509ZM35.6693 21.2509H37.9297V20.6562H35.6693V21.2509ZM30.668 21.8261H32.9882V21.2509H30.668V21.8261ZM35.6693 21.8261H37.9297V21.2509H35.6693V21.8261Z" fill="#CCCCCC"/>
<path fill-rule="evenodd" clip-rule="evenodd" d="M30.668 22.4213H32.9882V21.8267H30.668V22.4213ZM35.6693 22.4213H37.9297V21.8267H35.6693V22.4213Z" fill="#CCCCCC"/>
<path fill-rule="evenodd" clip-rule="evenodd" d="M30.668 23.0151H32.9882V22.4204H30.668V23.0151ZM35.6693 23.0151H37.9297V22.4204H35.6693V23.0151Z" fill="#CCCCCC"/>
<path fill-rule="evenodd" clip-rule="evenodd" d="M30.668 23.6103H32.9882V23.0156H30.668V23.6103ZM35.6693 23.6103H37.9297V23.0156H35.6693V23.6103Z" fill="#CCCCCC"/>
<path fill-rule="evenodd" clip-rule="evenodd" d="M30.668 24.1851H32.9882V23.6099H30.668V24.1851ZM35.6693 24.1851H37.9297V23.6099H35.6693V24.1851ZM30.668 24.7797H32.9882V24.1851H30.668V24.7797ZM35.6693 24.7797H37.9297V24.1851H35.6693V24.7797Z" fill="#CCCCCC"/>
<path fill-rule="evenodd" clip-rule="evenodd" d="M30.668 25.3745H32.9882V24.7798H30.668V25.3745ZM35.6693 25.3745H37.9297V24.7798H35.6693V25.3745Z" fill="#CCCCCC"/>
<path fill-rule="evenodd" clip-rule="evenodd" d="M51.9004 0.832996H53.7531V0C53.7531 0 53.0073 0.251312 51.9004 0.832996Z" fill="#CCCCCC"/>
<path fill-rule="evenodd" clip-rule="evenodd" d="M50.4683 1.66525H53.7534V0.833008H51.9008C51.4113 1.09 50.9334 1.36767 50.4683 1.66525Z" fill="#CCCCCC"/>
<path fill-rule="evenodd" clip-rule="evenodd" d="M49.2942 2.47828H53.7531V1.66553H50.4679C50.0668 1.92231 49.6753 2.19341 49.2942 2.47828ZM48.259 3.3109H53.7531V2.47828H49.2942C48.9395 2.74391 48.5942 3.02161 48.259 3.3109ZM47.3589 4.14352H52.8623C53.4086 3.89106 53.7535 3.78679 53.7535 3.78679V3.3109H48.2594C47.9496 3.57815 47.6492 3.85585 47.3589 4.14352Z" fill="#CCCCCC"/>
<path fill-rule="evenodd" clip-rule="evenodd" d="M46.5715 4.97606H51.3602C51.8399 4.66331 52.3418 4.38492 52.8621 4.14307H47.3588C47.0872 4.4122 46.8246 4.69002 46.5715 4.97606ZM45.8828 5.80868H50.2249C50.587 5.51035 50.9661 5.23249 51.3602 4.97645H46.5715C46.3328 5.24642 46.1031 5.52398 45.8828 5.80868Z" fill="#CCCCCC"/>
<path fill-rule="evenodd" clip-rule="evenodd" d="M45.278 6.64122H49.3117C49.6014 6.34844 49.9063 6.07053 50.225 5.80859H45.8829C45.6723 6.07969 45.4706 6.35738 45.278 6.64122ZM44.7612 7.45397H48.5784C48.8101 7.17209 49.0549 6.90089 49.3121 6.64122H45.2784C45.1 6.90284 44.9281 7.17363 44.7612 7.45397Z" fill="#CCCCCC"/>
<path fill-rule="evenodd" clip-rule="evenodd" d="M44.2998 8.28623H47.9517C48.1482 7.99988 48.3573 7.72207 48.5783 7.45361H44.7612C44.5992 7.72668 44.4454 8.00434 44.2998 8.28623ZM43.9014 9.11923H47.4322C47.599 8.82743 47.7724 8.55015 47.9521 8.28661H44.3002C44.1606 8.55626 44.0271 8.83355 43.9014 9.11923Z" fill="#CCCCCC"/>
<path fill-rule="evenodd" clip-rule="evenodd" d="M43.5601 9.95176H47.0012C47.134 9.66899 47.2775 9.39125 47.4315 9.11914H43.9007C43.7795 9.39356 43.6659 9.67121 43.5601 9.95176Z" fill="#CCCCCC"/>
<path fill-rule="evenodd" clip-rule="evenodd" d="M43.2731 10.7838H46.6491C46.7581 10.4958 46.8757 10.2178 47.0006 9.95117H43.5595C43.4582 10.2223 43.3628 10.5 43.2731 10.7838ZM43.0415 11.5965H46.3698C46.4563 11.3166 46.5494 11.0458 46.6495 10.7838H43.2735C43.1889 11.0526 43.1116 11.3237 43.0415 11.5965Z" fill="#CCCCCC"/>
<path fill-rule="evenodd" clip-rule="evenodd" d="M42.8485 12.4293H46.1465C46.214 12.1432 46.2881 11.8656 46.37 11.5967H43.0417C42.9702 11.8726 42.9058 12.1502 42.8485 12.4293ZM42.7007 13.2619H45.9766C46.0258 12.9762 46.0825 12.6989 46.1465 12.4293H42.8485C42.793 12.7016 42.7438 12.9793 42.7007 13.2619Z" fill="#CCCCCC"/>
<path fill-rule="evenodd" clip-rule="evenodd" d="M42.5945 14.0943H45.8576C45.8902 13.8094 45.9306 13.5317 45.9767 13.2617H42.7009C42.6589 13.5384 42.6234 13.816 42.5945 14.0943ZM42.5243 14.927H45.7851C45.8025 14.6428 45.8266 14.3651 45.858 14.0943H42.5949C42.5652 14.3713 42.5417 14.6489 42.5243 14.927ZM42.4956 15.7397H45.7548C45.7587 15.4632 45.7684 15.192 45.7851 14.9273H42.5243C42.5092 15.1979 42.4996 15.4688 42.4956 15.7397Z" fill="#CCCCCC"/>
<path fill-rule="evenodd" clip-rule="evenodd" d="M42.4973 16.5724H45.7635C45.7555 16.3742 45.7515 16.176 45.7515 15.9777C45.7515 15.8979 45.753 15.8192 45.7546 15.7397H42.4954C42.4938 15.8517 42.4907 15.9636 42.4907 16.077C42.4907 16.2443 42.4938 16.4093 42.4973 16.5724ZM50.4924 16.5724H53.7531V16.077H50.4924V16.5724Z" fill="#CCCCCC"/>
<path fill-rule="evenodd" clip-rule="evenodd" d="M42.5411 17.4057H45.8232C45.7956 17.1285 45.7759 16.8506 45.7642 16.5723H42.498C42.5062 16.8549 42.5206 17.1326 42.5411 17.4057ZM50.4928 17.4057H53.7535V16.5723H50.4928V17.4057Z" fill="#CCCCCC"/>
<path fill-rule="evenodd" clip-rule="evenodd" d="M42.6198 18.2389H45.9329C45.8876 17.9625 45.8509 17.6848 45.8231 17.4062H42.541C42.5612 17.6881 42.5872 17.9665 42.6198 18.2389ZM50.4926 18.2389H53.7534V17.4062H50.4926V18.2389Z" fill="#CCCCCC"/>
<path fill-rule="evenodd" clip-rule="evenodd" d="M42.7446 19.0709H46.0965C46.0331 18.7951 45.9785 18.5174 45.9328 18.2383H42.6196C42.6545 18.5213 42.6968 18.7986 42.7446 19.0709ZM50.4925 19.0709H53.7533V18.2383H50.4925V19.0709Z" fill="#CCCCCC"/>
<path fill-rule="evenodd" clip-rule="evenodd" d="M42.9138 19.9029H46.3193C46.2357 19.6279 46.1614 19.3502 46.0965 19.0703H42.7446C42.7947 19.3537 42.8509 19.6314 42.9138 19.9029ZM50.4926 19.9029H53.7533V19.0703H50.4926V19.9029Z" fill="#CCCCCC"/>
<path fill-rule="evenodd" clip-rule="evenodd" d="M43.124 20.7157H46.5969C46.495 20.4481 46.4025 20.1772 46.3195 19.9033H42.9141C42.9777 20.1802 43.0471 20.451 43.124 20.7157ZM50.4928 20.7157H53.7536V19.9033H50.4928V20.7157ZM43.3897 21.5491H46.9492C46.8219 21.2754 46.7044 20.9975 46.5969 20.7157H43.124C43.2058 20.9999 43.2943 21.2783 43.3897 21.5491ZM50.4928 21.5491H53.7536V20.7157H50.4928V21.5491Z" fill="#CCCCCC"/>
<path fill-rule="evenodd" clip-rule="evenodd" d="M43.7116 22.3814H47.377C47.2237 22.1093 47.0808 21.8315 46.9487 21.5488H43.3892C43.4904 21.8334 43.5979 22.1107 43.7116 22.3814ZM50.4926 22.3814H53.7534V21.5488H50.4926V22.3814Z" fill="#CCCCCC"/>
<path fill-rule="evenodd" clip-rule="evenodd" d="M44.0945 23.214H47.891C47.7089 22.9431 47.5375 22.6654 47.3773 22.3813H43.7119C43.8322 22.6663 43.9602 22.9439 44.0945 23.214ZM50.4926 23.214H53.7533V22.3813H50.4926V23.214Z" fill="#CCCCCC"/>
<path fill-rule="evenodd" clip-rule="evenodd" d="M44.5425 24.0465H48.5051C48.2886 23.7777 48.0838 23.4999 47.8913 23.2139H44.0947C44.2371 23.5003 44.3873 23.7772 44.5425 24.0465ZM50.4928 24.0465H53.7535V23.2139H50.4928V24.0465Z" fill="#CCCCCC"/>
<path fill-rule="evenodd" clip-rule="evenodd" d="M45.0483 24.8588H49.2209C48.9698 24.5988 48.7308 24.3277 48.5046 24.0464H44.542C44.7016 24.3226 44.8705 24.5935 45.0483 24.8588ZM50.4923 24.8588H53.7531V24.0464H50.4923V24.8588Z" fill="#CCCCCC"/>
<path fill-rule="evenodd" clip-rule="evenodd" d="M45.6467 25.6918H50.1254C49.8075 25.432 49.5056 25.1537 49.2214 24.8584H45.0488C45.2387 25.1426 45.4381 25.4206 45.6467 25.6918ZM50.4928 25.6918H53.7536V24.8584H50.4928V25.6918Z" fill="#CCCCCC"/>
<path fill-rule="evenodd" clip-rule="evenodd" d="M46.3336 26.5245H53.7534V25.6919H50.4926V25.9696C50.4926 25.9696 50.3549 25.8779 50.1252 25.6919H45.6465C45.8659 25.977 46.0951 26.2547 46.3336 26.5245Z" fill="#CCCCCC"/>
<path fill-rule="evenodd" clip-rule="evenodd" d="M47.1239 27.357H53.7532V26.5244H46.3335C46.5919 26.817 46.8565 27.0935 47.1239 27.357Z" fill="#CCCCCC"/>
<path fill-rule="evenodd" clip-rule="evenodd" d="M48.0358 28.1896H53.7534V27.3569H47.124C47.4179 27.645 47.722 27.9227 48.0358 28.1896Z" fill="#CCCCCC"/>
<path fill-rule="evenodd" clip-rule="evenodd" d="M49.0923 29.0221H53.7537V28.1895H48.0361C48.3774 28.48 48.7297 28.7577 49.0923 29.0221ZM50.3001 29.8352H53.7533V29.0221H49.0919C49.4839 29.3082 49.887 29.5794 50.3001 29.8352ZM51.79 30.6678H53.7537V29.8352H50.3005C50.8359 30.1656 51.3403 30.4425 51.79 30.6678Z" fill="#CCCCCC"/>
<path fill-rule="evenodd" clip-rule="evenodd" d="M53.7532 31.5001V30.6675H51.7896C52.9582 31.2534 53.7532 31.5001 53.7532 31.5001Z" fill="#CCCCCC"/>
<path fill-rule="evenodd" clip-rule="evenodd" d="M59.2949 16.8898H61.6753V16.731H59.2949V16.8898ZM64.4565 16.8898H66.9369V16.731H64.4565V16.8898ZM59.2949 17.4643H61.6753V16.8898H59.2949V17.4643ZM64.4565 17.4643H66.9369V16.8898H64.4565V17.4643Z" fill="#CCCCCC"/>
<path fill-rule="evenodd" clip-rule="evenodd" d="M59.2949 18.04H61.6753V17.4648H59.2949V18.04ZM64.4565 18.04H66.9369V17.4648H64.4565V18.04Z" fill="#CCCCCC"/>
<path fill-rule="evenodd" clip-rule="evenodd" d="M59.2949 18.614H61.6753V18.0396H59.2949V18.614ZM64.4565 18.614H66.9369V18.0396H64.4565V18.614ZM59.2949 19.1892H61.6753V18.614H59.2949V19.1892ZM64.4565 19.1892H66.9369V18.614H64.4565V19.1892Z" fill="#CCCCCC"/>
<path fill-rule="evenodd" clip-rule="evenodd" d="M59.2949 19.7646H61.6753V19.1895H59.2949V19.7646ZM64.4565 19.7646H66.9369V19.1895H64.4565V19.7646ZM59.2949 20.3398H61.6753V19.7646H59.2949V20.3398ZM64.4565 20.3398H66.9369V19.7646H64.4565V20.3398Z" fill="#CCCCCC"/>
<path fill-rule="evenodd" clip-rule="evenodd" d="M59.2949 20.9138H61.6753V20.3394H59.2949V20.9138ZM64.4565 20.9138H66.9369V20.3394H64.4565V20.9138ZM59.2949 21.5085H61.6753V20.9138H59.2949V21.5085ZM64.4565 21.5085H66.9369V20.9138H64.4565V21.5085ZM59.2949 22.0837H61.6753V21.5085H59.2949V22.0837ZM64.4565 22.0837H66.9369V21.5085H64.4565V22.0837Z" fill="#CCCCCC"/>
<path fill-rule="evenodd" clip-rule="evenodd" d="M59.3535 22.6587H61.9361C61.7246 22.3692 61.6753 22.0835 61.6753 22.0835H59.295C59.295 22.0835 59.2915 22.3153 59.3535 22.6587ZM64.3506 22.6587H66.8955C66.9242 22.4677 66.9343 22.3111 66.937 22.2103V22.0835H64.4565C64.4565 22.0835 64.4852 22.3692 64.3506 22.6587ZM59.5037 23.2331H62.9274C62.4249 23.1621 62.1196 22.9092 61.9361 22.6587H59.3535C59.3846 22.8279 59.4315 23.0242 59.5037 23.2331ZM63.504 23.2331H66.7624C66.8283 23.0242 66.8691 22.8279 66.8951 22.6587H64.3502C64.2338 22.9092 63.9936 23.1621 63.504 23.2331Z" fill="#CCCCCC"/>
<path fill-rule="evenodd" clip-rule="evenodd" d="M59.7577 23.8086H66.5271C66.6287 23.6138 66.7051 23.4186 66.7626 23.2334H63.5042C63.313 23.2608 63.1188 23.2608 62.9276 23.2334H59.5039C59.5675 23.4183 59.6498 23.6138 59.7577 23.8086Z" fill="#CCCCCC"/>
<path fill-rule="evenodd" clip-rule="evenodd" d="M60.164 24.3838H66.14C66.2906 24.207 66.4205 24.014 66.5272 23.8086H59.7578C59.8713 24.0145 60.0075 24.2074 60.164 24.3838ZM60.8489 24.9582H65.4746C65.7244 24.8007 65.9487 24.607 66.14 24.3838H60.164C60.3626 24.6072 60.5933 24.8007 60.8489 24.9582Z" fill="#CCCCCC"/>
<path fill-rule="evenodd" clip-rule="evenodd" d="M65.4743 24.9575H60.8486C61.4035 25.3005 62.155 25.5327 63.1758 25.5327C64.1916 25.5327 64.9335 25.3009 65.4743 24.9575Z" fill="#CCCCCC"/>
<path fill-rule="evenodd" clip-rule="evenodd" d="M60.8365 4.20323H65.413C64.8589 3.85949 64.1043 3.62842 63.0761 3.62842C62.0983 3.62804 61.3739 3.85949 60.8365 4.20323ZM60.1719 4.77804H66.0943C65.8974 4.55427 65.6678 4.36055 65.413 4.20323H60.8365C60.5877 4.36189 60.3637 4.55555 60.1719 4.77804Z" fill="#CCCCCC"/>
<path fill-rule="evenodd" clip-rule="evenodd" d="M59.7742 5.35265H66.4928C66.3818 5.1472 66.2482 4.95443 66.0943 4.77783H60.1719C60.0189 4.95496 59.8856 5.14765 59.7742 5.35265ZM59.5208 5.92746H66.7396C66.6746 5.72905 66.5919 5.53669 66.4924 5.35265H59.7738C59.6737 5.53714 59.5891 5.72938 59.5208 5.92746ZM59.3672 6.50266H61.8923C62.0781 6.23492 62.4204 5.98705 63.0555 5.98705C63.7011 5.98705 64.0492 6.23454 64.2362 6.50266H66.8831C66.8501 6.30779 66.8023 6.11564 66.7399 5.92785H59.5212C59.4564 6.1157 59.4049 6.30777 59.3672 6.50266Z" fill="#CCCCCC"/>
<path fill-rule="evenodd" clip-rule="evenodd" d="M59.2966 7.07715H61.6809C61.7037 6.87167 61.7762 6.67458 61.8923 6.50233H59.3672C59.3164 6.76396 59.3013 6.97059 59.2966 7.07715ZM64.4508 7.07715H66.9371V7.0317C66.9314 6.85411 66.9133 6.67712 66.8831 6.50195H64.2362C64.3914 6.72309 64.4368 6.95798 64.4508 7.07715ZM59.295 7.67182H61.6754V7.15621C61.6754 7.15621 61.6754 7.12642 61.6809 7.07715H59.2966C59.2943 7.12794 59.295 7.15621 59.295 7.15621V7.67182ZM64.4566 7.67182H66.9371V7.07715H64.4508C64.457 7.12642 64.457 7.15621 64.457 7.15621V7.67182H64.4566Z" fill="#CCCCCC"/>
<path fill-rule="evenodd" clip-rule="evenodd" d="M59.2949 8.24707H61.6753V7.67188H59.2949V8.24707ZM64.4565 8.24707H66.9369V7.67188H64.4565V8.24707ZM59.2949 8.82189H61.6753V8.24707H59.2949V8.82189ZM64.4565 8.82189H66.9369V8.24707H64.4565V8.82189Z" fill="#CCCCCC"/>
<path fill-rule="evenodd" clip-rule="evenodd" d="M59.2949 9.39659H61.6753V8.82178H59.2949V9.39659ZM64.4565 9.39659H66.9369V8.82178H64.4565V9.39659ZM59.2949 9.97178H61.6753V9.39697H59.2949V9.97178ZM64.4565 9.97178H66.9369V9.39697H64.4565V9.97178Z" fill="#CCCCCC"/>
<path fill-rule="evenodd" clip-rule="evenodd" d="M59.2949 10.5465H61.6753V9.97168H59.2949V10.5465ZM64.4565 10.5465H66.9369V9.97168H64.4565V10.5465ZM59.2949 11.1213H61.6753V10.5465H59.2949V11.1213ZM64.4565 11.1213H66.9369V10.5465H64.4565V11.1213ZM59.2949 11.6961H61.6753V11.1213H59.2949V11.6961ZM64.4565 11.6961H66.9369V11.1213H64.4565V11.6961Z" fill="#CCCCCC"/>
<path fill-rule="evenodd" clip-rule="evenodd" d="M59.2949 12.2711H61.6753V11.6963H59.2949V12.2711ZM64.4565 12.2711H66.9369V11.6963H64.4565V12.2711Z" fill="#CCCCCC"/>
<path fill-rule="evenodd" clip-rule="evenodd" d="M59.2949 12.8457H61.6753V12.2705H59.2949V12.8457ZM64.4565 12.8457H66.9369V12.2705H64.4565V12.8457Z" fill="#CCCCCC"/>
<path fill-rule="evenodd" clip-rule="evenodd" d="M59.2949 13.4205H61.6753V12.8457H59.2949V13.4205ZM64.4565 13.4205H66.9369V12.8457H64.4565V13.4205ZM59.2949 13.9957H61.6753V13.4209H59.2949V13.9957ZM64.4565 13.9957H66.9369V13.4209H64.4565V13.9957ZM59.2949 14.5904H61.6753V13.9957H59.2949V14.5904ZM64.4565 14.5904H66.9369V13.9957H64.4565V14.5904Z" fill="#CCCCCC"/>
<path fill-rule="evenodd" clip-rule="evenodd" d="M59.2949 15.1651H61.6753V14.5903H59.2949V15.1651ZM64.4565 15.1651H66.9369V14.5903H64.4565V15.1651ZM59.2949 15.74H61.6753V15.1651H59.2949V15.74ZM64.4565 15.74H66.9369V15.1651H64.4565V15.74Z" fill="#CCCCCC"/>
<path fill-rule="evenodd" clip-rule="evenodd" d="M59.2949 16.3149H61.6753V15.7397H59.2949V16.3149ZM64.4565 16.3149H66.9369V15.7397H64.4565V16.3149ZM66.9369 16.7313V16.3149H64.4565V16.7313H66.9369ZM61.6753 16.3149H59.2949V16.7313H61.6753V16.3149Z" fill="#CCCCCC"/>
<path fill-rule="evenodd" clip-rule="evenodd" d="M19.3819 4.36143H23.9941C23.4532 4.01884 22.7094 3.78662 21.6855 3.78662C20.6662 3.78662 19.9236 4.01884 19.3819 4.36143ZM18.7153 4.93625H24.6568C24.4668 4.71247 24.2432 4.51862 23.9937 4.36143H19.3819C19.1316 4.51891 18.9069 4.7127 18.7153 4.93625Z" fill="#CCCCCC"/>
<path fill-rule="evenodd" clip-rule="evenodd" d="M18.3394 5.49197H25.0292C24.9264 5.29409 24.8018 5.10798 24.6575 4.93701H18.7157C18.5701 5.10794 18.4439 5.29403 18.3394 5.49197Z" fill="#CCCCCC"/>
<path fill-rule="evenodd" clip-rule="evenodd" d="M18.0991 6.06603H25.2639C25.2034 5.86784 25.1248 5.67545 25.0291 5.49121H18.3393C18.2421 5.67547 18.1618 5.86782 18.0991 6.06603ZM17.9648 6.64122H20.5974C20.7786 6.40022 21.1123 6.16533 21.7257 6.16533C22.3585 6.16533 22.6934 6.40022 22.8695 6.64122H25.3923C25.3649 6.44663 25.322 6.25445 25.2643 6.06641H18.0991C18.032 6.27762 17.9905 6.47431 17.9648 6.64122Z" fill="#CCCCCC"/>
<path fill-rule="evenodd" clip-rule="evenodd" d="M17.9242 7.19607H20.3849V7.15635C20.3849 7.15635 20.4063 6.8951 20.5972 6.64111H17.9646C17.9169 6.95086 17.9242 7.15635 17.9242 7.15635V7.19607ZM23.0656 7.19607H25.4262V7.0326C25.4221 6.90157 25.4106 6.77087 25.3916 6.64111H22.8689C23.0551 6.8951 23.0656 7.15635 23.0656 7.15635V7.19607ZM17.9242 7.77088H20.3849V7.19607H17.9242V7.77088ZM23.0656 7.77088H25.4262V7.19607H23.0656V7.77088Z" fill="#CCCCCC"/>
<path fill-rule="evenodd" clip-rule="evenodd" d="M17.9243 8.34679H20.385V7.77197H17.9243V8.34679ZM23.0657 8.34679H25.4263V7.77197H23.0657V8.34679ZM17.9243 8.90174H20.385V8.34679H17.9243V8.90174ZM23.0657 8.90174H25.4263V8.34679H23.0657V8.90174Z" fill="#CCCCCC"/>
<path fill-rule="evenodd" clip-rule="evenodd" d="M17.9243 9.4757H20.385V8.90088H17.9243V9.4757ZM23.0657 9.4757H25.4263V8.90088H23.0657V9.4757ZM17.9243 10.0307H20.385V9.4757H17.9243V10.0307ZM23.0657 10.0307H25.4263V9.4757H23.0657V10.0307Z" fill="#CCCCCC"/>
<path fill-rule="evenodd" clip-rule="evenodd" d="M17.9243 10.606H20.385V10.0308H17.9243V10.606ZM23.0657 10.606H25.4263V10.0308H23.0657V10.606ZM17.9243 11.1808H20.385V10.606H17.9243V11.1808ZM23.0657 11.1808H25.4263V10.606H23.0657V11.1808Z" fill="#CCCCCC"/>
<path fill-rule="evenodd" clip-rule="evenodd" d="M17.9243 11.7356H20.385V11.1807H17.9243V11.7356ZM23.0657 11.7356H25.4263V11.1807H23.0657V11.7356Z" fill="#CCCCCC"/>
<path fill-rule="evenodd" clip-rule="evenodd" d="M17.9243 12.311H20.385V11.7358H17.9243V12.311ZM23.0657 12.311H25.4263V11.7358H23.0657V12.311Z" fill="#CCCCCC"/>
<path fill-rule="evenodd" clip-rule="evenodd" d="M17.9243 12.8854H20.385V12.3105H17.9243V12.8854ZM23.0657 12.8854H25.4263V12.3105H23.0657V12.8854Z" fill="#CCCCCC"/>
<path fill-rule="evenodd" clip-rule="evenodd" d="M17.9243 13.4407H20.385V12.8857H17.9243V13.4407ZM23.0657 13.4407H25.4263V12.8857H23.0657V13.4407ZM17.9243 14.0155H20.385V13.4407H17.9243V14.0155ZM23.0657 14.0155H25.4263V13.4407H23.0657V14.0155ZM17.9243 14.5907H20.385V14.0159H17.9243V14.5907ZM23.0657 14.5907H25.4263V14.0159H23.0657V14.5907Z" fill="#CCCCCC"/>
<path fill-rule="evenodd" clip-rule="evenodd" d="M17.9243 15.1453H20.385V14.5903H17.9243V15.1453ZM23.0657 15.1453H25.4263V14.5903H23.0657V15.1453ZM17.9243 15.7201H20.385V15.1453H17.9243V15.7201ZM23.0657 15.7201H25.4263V15.1453H23.0657V15.7201Z" fill="#CCCCCC"/>
<path fill-rule="evenodd" clip-rule="evenodd" d="M17.9243 16.295H20.385V15.7202H17.9243V16.295ZM23.0657 16.295H25.4263V15.7202H23.0657V16.295Z" fill="#CCCCCC"/>
<path fill-rule="evenodd" clip-rule="evenodd" d="M17.9243 16.8499H20.385V16.2949H17.9243V16.8499ZM23.0657 16.8499H25.4263V16.2949H23.0657V16.8499ZM17.9243 17.4251H20.385V16.8499H17.9243V17.4251ZM23.0657 17.4251H25.4263V16.8499H23.0657V17.4251Z" fill="#CCCCCC"/>
<path fill-rule="evenodd" clip-rule="evenodd" d="M17.9245 17.9803H20.3852V17.4253H17.9245V17.9803ZM23.0658 17.9803H25.4264V17.4253H23.0658V17.9803ZM17.9245 18.5555H20.3852V17.9803H17.9245V18.5555ZM23.0658 18.5555H25.4264V17.9803H23.0658V18.5555ZM14.8306 19.1299H25.4264V18.5555H23.0658V18.6941H20.3852V18.5555H17.9245V18.6941H14.5435L14.8306 19.1299Z" fill="#CCCCCC"/>
<path fill-rule="evenodd" clip-rule="evenodd" d="M15.1964 19.6856H25.4264V19.1299H14.8306L15.1964 19.6856ZM15.5747 20.26H25.4264V19.6856H15.1964L15.5747 20.26Z" fill="#CCCCCC"/>
<path fill-rule="evenodd" clip-rule="evenodd" d="M15.9534 20.8351H25.4264V20.2603H15.5747L15.9534 20.8351ZM18.0245 21.3904H20.3452V21.073H23.1259V21.3904H25.4264V20.8351H15.9534L16.0841 21.0337H18.0245V21.3904Z" fill="#CCCCCC"/>
<path fill-rule="evenodd" clip-rule="evenodd" d="M18.0244 21.9653H20.345V21.3901H18.0244V21.9653ZM23.1258 21.9653H25.4263V21.3901H23.1258V21.9653Z" fill="#CCCCCC"/>
<path fill-rule="evenodd" clip-rule="evenodd" d="M18.0244 22.5393H20.345V21.9648H18.0244V22.5393ZM23.1258 22.5393H25.4263V21.9648H23.1258V22.5393ZM18.0244 23.0942H20.345V22.5393H18.0244V23.0942ZM23.1258 23.0942H25.4263V22.5393H23.1258V23.0942Z" fill="#CCCCCC"/>
<path fill-rule="evenodd" clip-rule="evenodd" d="M18.0244 23.6694H20.345V23.0942H18.0244V23.6694ZM23.1258 23.6694H25.4263V23.0942H23.1258V23.6694ZM18.0244 24.2446H20.345V23.6694H18.0244V24.2446ZM23.1258 24.2446H25.4263V23.6694H23.1258V24.2446ZM18.0244 24.7996H20.345V24.2446H18.0244V24.7996ZM23.1258 24.7996H25.4263V24.2446H23.1258V24.7996Z" fill="#CCCCCC"/>
<path fill-rule="evenodd" clip-rule="evenodd" d="M18.0244 25.3742H20.345V24.7998H18.0244V25.3742ZM23.1258 25.3742H25.4263V24.7998H23.1258V25.3742Z" fill="#CCCCCC"/>
</svg>
