<svg width="60" height="32" viewBox="0 0 60 32" fill="none" xmlns="http://www.w3.org/2000/svg">
<path fill-rule="evenodd" clip-rule="evenodd" d="M25.6324 27.3214C23.0484 29.4105 19.6339 30.6822 16.0347 30.6822C7.54444 30.6822 0.738446 23.9595 0.738446 15.7159C0.738446 7.44919 7.54444 0.72657 16.0347 0.72657C21.6642 0.72657 26.5555 3.72443 29.2316 8.26667C29.6006 8.35757 29.8777 8.44848 30.2464 8.53938C27.5707 3.45205 22.2179 0 16.0347 0C7.17504 0 0 6.995 0 15.7159C0 24.4144 7.17538 31.5 16.0347 31.5C20.1876 31.5 23.9712 29.865 26.8322 27.3214H25.6324Z" fill="#CCCCCC"/>
<path fill-rule="evenodd" clip-rule="evenodd" d="M18.0649 26.595H59.9394V20.4175H18.0649V26.595Z" fill="#CCCCCC"/>
<path fill-rule="evenodd" clip-rule="evenodd" d="M20.1874 9.35657L20.0027 10.1744H17.9724C17.4186 15.9886 17.0496 20.6894 16.6805 22.8701C15.8501 26.7763 12.1585 28.9564 9.75917 28.9564C8.92872 28.9564 7.91357 28.5934 7.91357 27.5941C7.91357 27.049 8.37497 26.5948 8.92872 26.5948C9.75917 26.5948 10.4053 27.2305 10.8667 27.9571C12.1589 27.2305 12.3432 26.5948 12.897 24.0508C13.174 22.8701 13.9121 14.4439 14.2812 10.1744H12.6199L12.8046 9.35657H14.4659L14.6506 7.90343C15.5734 2.54372 19.5416 1.90771 21.0185 1.90771C21.7566 1.90771 23.2331 2.271 23.2331 3.27029C23.2331 3.90595 22.6794 4.17867 22.1256 4.17867C21.1105 4.17867 20.6491 3.63357 20.1874 2.81576C18.5261 3.54266 18.2494 7.53981 18.0647 9.35623H20.1874V9.35657ZM20.003 16.8058C20.003 12.5366 22.7717 8.81181 27.4781 8.81181C30.4315 8.81181 32.0921 10.0838 32.0921 12.8999C32.0921 17.1694 29.3237 20.7806 24.617 20.7806C21.6642 20.7806 20.003 19.5086 20.003 16.8058ZM28.3089 13.5359C28.3089 12.4457 28.2165 9.81143 26.5556 9.81143C24.1563 9.81143 23.7869 14.4442 23.7869 16.1704C23.7869 17.1697 23.8792 19.8726 25.5401 19.8726C27.9395 19.8722 28.3089 15.2617 28.3089 13.5359ZM33.1076 16.8058C33.1076 12.5366 35.9687 8.81181 40.675 8.81181C43.5361 8.81181 45.266 10.0838 45.266 12.8999C45.266 17.1694 42.4283 20.7806 37.7219 20.7806C34.8608 20.7806 33.1076 19.5086 33.1076 16.8058ZM41.5055 13.5359C41.5055 12.4457 41.4135 9.81143 39.7522 9.81143C37.2605 9.81143 36.9838 14.4442 36.9838 16.1704C36.9838 17.1697 36.9838 19.8726 38.6447 19.8726C41.1361 19.8722 41.5055 15.2617 41.5055 13.5359ZM59.5708 19.418C57.9092 20.1446 55.8789 20.7803 54.495 20.7803C53.7569 20.7803 53.8486 19.6897 53.8486 19.2359C53.8486 18.6915 53.8486 17.9639 54.0336 16.5337L53.9409 16.4425C53.0181 18.3275 51.1725 20.7803 48.7732 20.7803C46.9272 20.7803 46.0965 18.8726 46.0965 17.2603C46.0965 13.2628 49.3263 8.99362 53.9409 8.99362H54.8637C55.2331 6.17724 55.2331 4.99648 55.2331 4.08776C55.2331 3.81538 55.2331 3.54266 54.9561 3.54266C54.679 3.54266 54.3103 3.63357 53.3872 3.90595L53.2028 3.17938C55.0488 2.54372 57.0791 2.18009 58.9243 2.08919C59.1094 2.08919 59.2014 2.08919 59.2014 2.45247C59.2014 4.81433 57.3554 17.169 57.3554 18.4187C57.3554 18.6915 57.3554 19.1453 57.7248 19.1453C57.9092 19.1453 58.5556 18.9632 59.2937 18.6911L59.5708 19.418ZM53.5715 15.5344C54.218 13.99 54.4023 12.4457 54.7717 10.0838C54.5867 9.99257 54.4023 9.99257 54.3103 9.99257C51.4492 9.99257 50.0647 14.1715 50.0647 16.4425C50.0647 16.9876 50.1574 18.3275 50.9878 18.3275C52.1877 18.3278 53.2028 16.4428 53.5715 15.5344Z" fill="#CCCCCC"/>
<path fill-rule="evenodd" clip-rule="evenodd" d="M20.5566 21.8707H21.5718L22.8636 23.7784V21.8707H23.6944V25.5042H22.956L21.3871 23.4154V25.5042H20.5566V21.8707ZM26.0934 21.8707H28.9545V22.5976H27.2009V23.2329H28.3088V24.0507H27.2009V24.6864H28.9545V25.5042H26.0934V21.8707ZM32.0003 22.5976H30.9852V21.8707H34.1226V22.5976H33.1075V25.5042H32.0003V22.5976ZM35.9686 21.8707H37.0754L37.5375 23.7784H37.6291L38.0905 21.8707H39.014L39.4751 23.7784H39.5678L40.0292 21.8707H40.8593L39.9365 25.5042H39.014L38.4599 23.5056L37.9062 25.5042H36.9837L35.9686 21.8707ZM44.6202 25.5954C43.536 25.5954 42.7976 24.8689 42.7976 23.6874C42.7976 22.5067 43.5357 21.7798 44.6202 21.7798C45.728 21.7798 46.3734 22.5064 46.3734 23.6874C46.3734 24.8685 45.7277 25.5954 44.6202 25.5954ZM43.9744 23.6871C43.9744 24.6864 44.2515 24.8685 44.6202 24.8685C44.9896 24.8685 45.2659 24.6864 45.2659 23.6871C45.2659 22.6885 44.9896 22.5064 44.6202 22.5064C44.1588 22.5064 43.9744 22.7791 43.9744 23.6871ZM48.5881 21.8707H50.434C51.6335 21.8707 51.9106 22.4151 51.9106 22.87C51.9106 23.3242 51.6335 23.6871 51.1725 23.7784L51.9106 25.5042H50.7111L50.1573 23.9598H49.6959V25.5042H48.5881V21.8707ZM49.6959 23.3242H50.2497C50.526 23.3242 50.8034 23.142 50.8034 22.9605C50.8034 22.6885 50.6184 22.5064 50.2497 22.5064H49.6959V23.3242ZM54.2179 21.8707H55.3254V23.3242L56.4326 21.8707H57.4477L56.5249 23.0514L57.6321 25.5042H56.5249L55.7868 23.9598L55.3254 24.5962V25.5042H54.2179V21.8707Z" fill="white"/>
</svg>
