<svg width="83" height="32" viewBox="0 0 83 32" fill="none" xmlns="http://www.w3.org/2000/svg">
<g clip-path="url(#clip0_622_1898)">
<path d="M72.6584 18.3893C72.3345 18.3893 72.0916 18.3083 71.9027 18.1194C71.7407 17.9574 71.6328 17.6875 71.6328 17.3636V7.40416C71.6328 7.08028 71.7137 6.81037 71.9027 6.64843C72.0916 6.48649 72.3345 6.40552 72.6584 6.40552H74.4668C74.8716 6.40552 75.2225 6.43251 75.5194 6.4595C75.8163 6.51348 76.0862 6.59445 76.2751 6.75639C76.491 6.91833 76.626 7.13426 76.7339 7.45814C76.8419 7.75504 76.8959 8.18688 76.8959 8.6997V16.0951C76.8959 16.7698 76.8149 17.2557 76.626 17.5795C76.437 17.9034 76.1672 18.1194 75.8163 18.2273C75.4654 18.3353 75.0066 18.3893 74.4668 18.3623L72.6584 18.3893ZM66.8555 0.602578C66.5316 0.629568 66.2617 0.71054 66.0997 0.872482C65.9378 1.03442 65.8568 1.30433 65.8568 1.62821V23.1666C65.8568 23.4904 65.9378 23.7334 66.1267 23.9223C66.2887 24.0842 66.5586 24.1922 66.8825 24.1922H74.3858C75.9512 24.1922 77.3007 24.0303 78.3804 23.7064C79.46 23.3825 80.3237 22.8697 80.9714 22.2219C81.6192 21.5741 82.105 20.7104 82.3749 19.6848C82.6718 18.6592 82.8068 17.4716 82.8068 16.0951V8.6997C82.8068 7.32319 82.6718 6.13561 82.3749 5.10998C82.078 4.08434 81.6192 3.24764 80.9714 2.59987C80.3237 1.92511 79.46 1.43928 78.3804 1.1154C77.3007 0.791511 75.9782 0.629568 74.3858 0.629568L66.8555 0.602578ZM57.031 14.8265C57.031 15.4743 57.004 16.0681 56.977 16.5809C56.923 17.0937 56.815 17.5256 56.6531 17.9034C56.4911 18.2813 56.2212 18.5512 55.8434 18.7401C55.4925 18.9291 55.0067 19.037 54.3859 19.037C53.7651 19.037 53.2793 18.9291 52.9284 18.7401C52.5505 18.5512 52.3076 18.2813 52.1187 17.9034C51.9568 17.5526 51.8488 17.0937 51.7948 16.5809C51.7408 16.0681 51.7138 15.4743 51.7408 14.8265V9.96825C51.7408 9.32048 51.7678 8.72669 51.7948 8.21387C51.8488 7.70106 51.9568 7.26921 52.1187 6.89134C52.2806 6.51348 52.5505 6.24357 52.9284 6.05464C53.2793 5.86571 53.7651 5.75775 54.3859 5.75775C55.0067 5.75775 55.4925 5.86571 55.8434 6.05464C56.2212 6.24357 56.4642 6.51348 56.6531 6.89134C56.815 7.24222 56.923 7.70106 56.977 8.21387C57.031 8.72669 57.031 9.32048 57.031 9.96825V14.8265ZM62.8069 8.18688C62.8069 7.80902 62.7799 7.35018 62.7259 6.81037C62.6719 6.27056 62.564 5.70376 62.3751 5.08299C62.1861 4.46221 61.9162 3.86842 61.5653 3.27463C61.1875 2.68084 60.7016 2.14103 60.0809 1.6552C59.4601 1.16938 58.6774 0.764521 57.7327 0.467626C56.788 0.170732 55.6544 0.0357795 54.3319 0.00878906C53.0094 0.00878906 51.8758 0.170732 50.9311 0.467626C49.9865 0.764521 49.2037 1.16938 48.583 1.6552C47.9622 2.14103 47.4763 2.68084 47.0985 3.27463C46.7206 3.86842 46.4507 4.4892 46.2888 5.08299C46.0998 5.70376 45.9919 6.27056 45.9379 6.81037C45.8839 7.35018 45.8569 7.80902 45.8569 8.18688V16.6079C45.8569 16.9858 45.8839 17.4446 45.9379 17.9844C45.9919 18.5242 46.0998 19.091 46.2888 19.7118C46.4507 20.3326 46.7476 20.9264 47.0985 21.5201C47.4763 22.1139 47.9622 22.6537 48.583 23.1666C49.2037 23.6524 49.9865 24.0572 50.9311 24.3271C51.8758 24.624 53.0094 24.786 54.3319 24.786C55.6544 24.786 56.788 24.624 57.7327 24.3271C58.6774 24.0303 59.4601 23.6524 60.0809 23.1666C60.7016 22.6807 61.1875 22.1409 61.5653 21.5201C61.9432 20.9264 62.2131 20.3056 62.3751 19.7118C62.537 19.091 62.6719 18.5242 62.7259 17.9844C62.7799 17.4446 62.8069 16.9858 62.8069 16.6079V8.18688ZM37.4089 14.8265C37.4089 15.4743 37.3819 16.0681 37.3549 16.5809C37.301 17.0937 37.193 17.5256 37.0311 17.9034C36.8691 18.2813 36.5992 18.5512 36.2213 18.7401C35.8705 18.9291 35.3846 19.037 34.7639 19.037C34.1431 19.037 33.6573 18.9291 33.3064 18.7401C32.9285 18.5512 32.6856 18.2813 32.4967 17.9034C32.3347 17.5526 32.2268 17.0937 32.1728 16.5809C32.1188 16.0681 32.0918 15.4743 32.1188 14.8265V9.96825C32.1188 9.32048 32.1458 8.72669 32.1728 8.21387C32.2268 7.70106 32.3347 7.26921 32.4967 6.89134C32.6586 6.51348 32.9285 6.24357 33.3064 6.05464C33.6573 5.86571 34.1431 5.75775 34.7639 5.75775C35.3846 5.75775 35.8705 5.86571 36.2213 6.05464C36.5992 6.24357 36.8421 6.51348 37.0311 6.89134C37.193 7.24222 37.301 7.70106 37.3549 8.21387C37.4089 8.72669 37.4089 9.32048 37.4089 9.96825V14.8265ZM43.2119 8.18688C43.2119 7.80902 43.1849 7.35018 43.1309 6.81037C43.0769 6.27056 42.9689 5.70376 42.78 5.08299C42.5911 4.46221 42.3212 3.86842 41.9703 3.27463C41.5924 2.68084 41.1066 2.14103 40.4858 1.6552C39.8651 1.16938 39.0823 0.764521 38.1377 0.467626C37.193 0.170732 36.0594 0.0357795 34.7369 0.00878906C33.4143 0.00878906 32.2807 0.170732 31.3361 0.467626C30.3914 0.764521 29.6087 1.16938 28.9879 1.6552C28.3671 2.14103 27.8813 2.68084 27.5034 3.27463C27.1256 3.86842 26.8557 4.4892 26.6937 5.08299C26.5048 5.70376 26.3968 6.27056 26.3429 6.81037C26.2889 7.35018 26.2619 7.80902 26.2619 8.18688V16.6079C26.2619 16.9858 26.2889 17.4446 26.3429 17.9844C26.3968 18.5242 26.5048 19.091 26.6937 19.7118C26.8557 20.3326 27.1526 20.9264 27.5034 21.5201C27.8813 22.1139 28.3671 22.6537 28.9879 23.1666C29.6087 23.6524 30.3914 24.0572 31.3361 24.3271C32.2807 24.624 33.4143 24.786 34.7369 24.786C36.0594 24.786 37.193 24.624 38.1377 24.3271C39.0823 24.0303 39.8651 23.6524 40.4858 23.1666C41.1066 22.6807 41.5924 22.1409 41.9703 21.5201C42.3482 20.9264 42.6181 20.3056 42.78 19.7118C42.942 19.091 43.0769 18.5242 43.1309 17.9844C43.1849 17.4446 43.2119 16.9858 43.2119 16.6079V8.18688ZM23.2929 0.602578C23.9677 0.602578 24.2916 0.953453 24.2916 1.60122V5.37988C24.2916 5.70376 24.2106 5.94668 24.0487 6.13561C23.8867 6.32454 23.6168 6.40552 23.2929 6.40552H14.4941C14.1702 6.40552 13.9273 6.48649 13.7383 6.64843C13.5494 6.81037 13.4684 7.08028 13.4684 7.40416V23.1936C13.4684 23.5174 13.3875 23.7603 13.2255 23.9493C13.0636 24.1112 12.7937 24.2192 12.4698 24.2192H8.5022C8.17831 24.2192 7.9354 24.1382 7.74647 23.9493C7.58452 23.7603 7.47656 23.5174 7.47656 23.1936V1.62821C7.47656 1.30433 7.55753 1.03442 7.74647 0.872482C7.9354 0.71054 8.17831 0.629568 8.5022 0.629568L23.2929 0.602578Z" fill="#CCCCCC"/>
<path d="M81.2682 29.4545C81.2682 29.4275 81.2412 29.4275 81.2412 29.4005C81.2412 29.3735 81.2412 29.3735 81.2682 29.3465L82.6178 27.5112C82.6717 27.4302 82.6717 27.3762 82.6447 27.3492C82.6178 27.3222 82.5638 27.2683 82.4828 27.2683H81.5111C81.4572 27.2683 81.4032 27.2683 81.3762 27.2952C81.3492 27.3222 81.2952 27.3492 81.2682 27.4032L80.2156 28.8337C80.1886 28.8607 80.1886 28.8607 80.1616 28.8607C80.1346 28.8607 80.1346 28.8337 80.1346 28.8067V27.4842C80.1346 27.3492 80.0807 27.2952 79.9457 27.2952H79.19C79.136 27.2952 79.082 27.3222 79.055 27.3492C79.028 27.3762 79.001 27.4302 79.001 27.5112V31.7756C79.001 31.8296 79.028 31.8836 79.055 31.9106C79.082 31.9376 79.136 31.9646 79.19 31.9646H79.9457C79.9997 31.9646 80.0537 31.9376 80.1076 31.9106C80.1616 31.8836 80.1616 31.8296 80.1616 31.7756V31.0469V30.9929C80.1616 30.9659 80.1616 30.9659 80.1886 30.9389L80.4585 30.5611C80.4585 30.5341 80.4855 30.5341 80.5125 30.5341C80.5395 30.5341 80.5395 30.5341 80.5665 30.5611L81.4032 31.8296C81.4302 31.8836 81.4572 31.9106 81.5111 31.9376C81.5381 31.9646 81.5921 31.9646 81.6461 31.9646H82.6447C82.7257 31.9646 82.7797 31.9376 82.8067 31.8836C82.8337 31.8296 82.8337 31.7756 82.7797 31.7217L81.2682 29.4545ZM75.2224 27.2683C75.1684 27.2683 75.1144 27.2952 75.0874 27.3222C75.0604 27.3492 75.0335 27.4032 75.0335 27.4842V30.4531C75.0335 30.5341 75.0335 30.6151 75.0604 30.723C75.0604 30.831 75.0874 30.9389 75.1414 31.0739C75.1684 31.1819 75.2224 31.3168 75.3034 31.4248C75.3843 31.5327 75.4653 31.6407 75.6003 31.7487C75.7352 31.8566 75.8702 31.9106 76.0591 31.9916C76.248 32.0456 76.4639 32.0725 76.7338 32.0725C77.0037 32.0725 77.2197 32.0456 77.4086 31.9916C77.5975 31.9376 77.7595 31.8566 77.8674 31.7487C78.0024 31.6407 78.0834 31.5327 78.1643 31.4248C78.2453 31.3168 78.2993 31.1819 78.3263 31.0739C78.3533 30.9659 78.3803 30.831 78.3803 30.723C78.3803 30.6151 78.4073 30.5341 78.4073 30.4531V27.4842C78.4073 27.3492 78.3533 27.2952 78.2183 27.2952H77.4626C77.4086 27.2952 77.3546 27.3222 77.3276 27.3492C77.3006 27.3762 77.2737 27.4302 77.2737 27.5112V30.4801C77.2737 30.5881 77.2467 30.669 77.2197 30.75C77.1927 30.831 77.1387 30.885 77.0577 30.912C76.9768 30.9389 76.8958 30.9659 76.7608 30.9659C76.6259 30.9659 76.5449 30.9389 76.4639 30.912C76.383 30.885 76.329 30.831 76.302 30.75C76.275 30.669 76.248 30.5881 76.248 30.4801C76.248 30.3721 76.221 30.2642 76.248 30.1292V27.5112C76.248 27.3762 76.194 27.3222 76.0591 27.3222L75.2224 27.2683ZM74.3587 30.777C74.4936 30.777 74.5476 30.831 74.5476 30.9659V31.7217C74.5476 31.7756 74.5206 31.8296 74.4936 31.8566C74.4667 31.8836 74.4127 31.9106 74.3317 31.9106H73.576C73.522 31.9106 73.468 31.8836 73.441 31.8566C73.414 31.8296 73.387 31.7756 73.387 31.7217V30.9659C73.387 30.912 73.414 30.858 73.441 30.804C73.468 30.777 73.522 30.75 73.576 30.75L74.3587 30.777ZM71.7406 30.0753V30.4261C71.7406 30.5341 71.7136 30.6151 71.6866 30.696C71.6597 30.777 71.6057 30.831 71.5247 30.858C71.4437 30.885 71.3628 30.912 71.2278 30.912C71.0929 30.912 71.0119 30.885 70.9309 30.858C70.8499 30.831 70.796 30.777 70.769 30.696C70.742 30.6151 70.715 30.5341 70.715 30.4261C70.715 30.3182 70.688 30.2102 70.715 30.0753V29.1306V28.7797C70.715 28.6718 70.742 28.5908 70.769 28.5098C70.796 28.4288 70.8499 28.3749 70.9309 28.3479C71.0119 28.3209 71.0929 28.2939 71.2278 28.2939C71.3628 28.2939 71.4437 28.3209 71.5247 28.3479C71.6057 28.3749 71.6597 28.4288 71.6866 28.5098C71.7136 28.5908 71.7406 28.6718 71.7406 28.7797V30.0753ZM72.9012 28.7527C72.9012 28.6718 72.9012 28.5908 72.8742 28.4828C72.8742 28.3749 72.8472 28.2669 72.8202 28.1319C72.7932 28.024 72.7393 27.889 72.6583 27.7811C72.5773 27.6731 72.4964 27.5651 72.3614 27.4572C72.2265 27.3492 72.0915 27.2952 71.9026 27.2143C71.7136 27.1603 71.4977 27.1333 71.2278 27.1333C70.9579 27.1333 70.742 27.1603 70.5531 27.2143C70.3641 27.2683 70.2022 27.3492 70.0942 27.4572C69.9593 27.5651 69.8783 27.6731 69.7973 27.7811C69.7164 27.889 69.6624 28.024 69.6354 28.1319C69.6084 28.2399 69.5814 28.3749 69.5544 28.4828C69.5544 28.5908 69.5274 28.6718 69.5274 28.7527V30.4261C69.5274 30.5071 69.5274 30.5881 69.5544 30.696C69.5544 30.804 69.5814 30.912 69.6354 31.0469C69.6624 31.1549 69.7164 31.2898 69.7973 31.3978C69.8783 31.5057 69.9593 31.6137 70.0942 31.7217C70.2292 31.8296 70.3641 31.8836 70.5531 31.9646C70.742 32.0186 70.9579 32.0456 71.2278 32.0456C71.4977 32.0456 71.7136 32.0186 71.9026 31.9646C72.0915 31.9106 72.2534 31.8296 72.3614 31.7217C72.4964 31.6137 72.5773 31.5057 72.6583 31.3978C72.7393 31.2898 72.7932 31.1549 72.8202 31.0469C72.8472 30.9389 72.8742 30.804 72.8742 30.696C72.8742 30.5881 72.9012 30.5071 72.9012 30.4261V28.7527ZM65.8297 30.4261C65.8297 30.5071 65.8297 30.5881 65.8567 30.696C65.8567 30.804 65.8837 30.912 65.9377 31.0469C65.9647 31.1549 66.0187 31.2898 66.0996 31.3978C66.1806 31.5057 66.2616 31.6137 66.3965 31.7217C66.5315 31.8296 66.6664 31.8836 66.8554 31.9646C67.0443 32.0186 67.2602 32.0456 67.5301 32.0456C67.773 32.0456 67.962 32.0186 68.1509 31.9646C68.3129 31.9106 68.4748 31.8566 68.5828 31.7756C68.6907 31.6947 68.7987 31.6137 68.8796 31.5057C68.9606 31.3978 69.0146 31.2898 69.0686 31.1819C69.1226 31.0739 69.1496 30.9659 69.1496 30.858C69.1765 30.75 69.1765 30.669 69.1765 30.5611C69.1765 30.5071 69.1765 30.4801 69.1496 30.4261C69.1226 30.3991 69.0956 30.3721 69.0416 30.3721L68.2859 30.2102C68.2319 30.1832 68.1509 30.2102 68.1239 30.2372C68.0699 30.2642 68.0429 30.3182 68.0429 30.3991C68.0429 30.5071 68.016 30.5881 67.962 30.669C67.935 30.75 67.881 30.804 67.8 30.831C67.7191 30.858 67.6381 30.885 67.5031 30.885C67.3682 30.885 67.2872 30.858 67.2062 30.831C67.1253 30.804 67.0713 30.75 67.0443 30.669C67.0173 30.5881 66.9903 30.5071 66.9903 30.3991C66.9903 30.2912 66.9633 30.1832 66.9903 30.0483V29.1036V28.7527C66.9903 28.6448 67.0173 28.5638 67.0443 28.4828C67.0713 28.4018 67.1253 28.3479 67.2062 28.3209C67.2872 28.2939 67.3682 28.2669 67.5031 28.2669C67.6111 28.2669 67.7191 28.2939 67.8 28.3209C67.881 28.3479 67.935 28.4018 67.962 28.4828C67.989 28.5638 68.016 28.6448 68.016 28.7257C68.016 28.8067 68.0429 28.8607 68.0969 28.8877C68.1509 28.9147 68.2049 28.9417 68.2859 28.9417L69.0146 28.7797C69.0686 28.7797 69.0956 28.7527 69.1226 28.7257C69.1496 28.6987 69.1496 28.6448 69.1496 28.6178C69.1496 28.5368 69.1226 28.4288 69.1226 28.3209L69.0416 27.997C68.9876 27.889 68.9336 27.7811 68.8527 27.6731C68.7717 27.5651 68.6637 27.4842 68.5558 27.4032C68.4208 27.3222 68.2859 27.2683 68.1239 27.2143C67.962 27.1603 67.7461 27.1333 67.5031 27.1333C67.2332 27.1333 67.0173 27.1603 66.8284 27.2143C66.6394 27.2683 66.4775 27.3492 66.3695 27.4572C66.2346 27.5651 66.1536 27.6731 66.0727 27.7811C65.9917 27.889 65.9377 28.024 65.9107 28.1319C65.8837 28.2399 65.8567 28.3749 65.8297 28.4828C65.8297 28.5908 65.8027 28.6718 65.8027 28.7527V30.4261H65.8297ZM65.209 30.777C65.3439 30.777 65.3979 30.831 65.3979 30.9659V31.7217C65.3979 31.7756 65.3709 31.8296 65.3439 31.8566C65.3169 31.8836 65.2629 31.9106 65.182 31.9106H64.4262C64.3723 31.9106 64.3183 31.8836 64.2913 31.8566C64.2643 31.8296 64.2373 31.7756 64.2373 31.7217V30.9659C64.2373 30.912 64.2643 30.858 64.2913 30.804C64.3183 30.777 64.3723 30.75 64.4262 30.75L65.209 30.777Z" fill="#CCCCCC"/>
<path d="M15.7893 13.4227C13.2791 13.2068 1.0255 15.204 0.107822 13.0448C-1.43063 9.45508 11.4438 11.4794 13.1712 11.5333C14.0349 11.5603 15.1145 11.7223 15.7353 11.5603C16.1671 11.4254 16.464 10.7236 16.9498 10.4537C18.0295 9.80596 19.7838 10.1568 21.2953 10.2918C22.3209 10.3728 23.3196 10.4807 24.3992 10.5617C22.8607 10.7776 21.2143 10.9935 19.5949 11.2095C19.406 11.2365 19.1091 11.1555 18.9741 11.3714C20.6205 11.6413 22.4829 11.6953 24.2642 11.8302C22.5099 12.1001 20.5396 12.1541 18.8122 12.478C18.9201 12.6669 19.244 12.613 19.433 12.64C20.9714 12.7479 22.6718 12.8829 24.2912 12.9638C22.6178 13.2337 20.6745 13.2877 19.0011 13.6116C19.0551 13.8815 19.406 13.8005 19.5679 13.8005C21.1064 13.9895 22.8337 14.2054 24.4262 14.3404C22.6718 14.4753 20.5126 14.8802 18.7042 14.9881C17.3007 15.0691 16.464 14.2594 15.7893 13.4227Z" fill="#CCCCCC"/>
<path d="M11.4444 13.6387C13.3877 13.4767 15.0341 13.3418 15.7899 13.3958C16.1407 13.8276 16.4916 14.2325 16.9774 14.5294C17.4363 14.8263 17.9761 15.0152 18.6778 14.9612C19.6765 14.9072 20.7831 14.7453 21.8627 14.6103C22.6454 14.5024 23.4012 14.3944 24.1029 14.3404C23.4012 14.2865 22.6994 14.2055 21.9707 14.1245C21.134 14.0435 20.3243 13.9356 19.5685 13.8276H19.4336C19.2446 13.8276 19.0017 13.8276 18.9747 13.6117V13.5847H19.0017C19.9194 13.3958 20.945 13.2878 21.9707 13.2068C22.6724 13.1529 23.3742 13.0719 24.0219 12.9909C22.8074 12.9099 21.5388 12.829 20.3512 12.748C20.0543 12.721 19.7575 12.694 19.4606 12.694H19.3256C19.1367 12.694 18.9207 12.694 18.8128 12.5321L18.7858 12.5051H18.8128C19.7844 12.3162 20.8371 12.2082 21.8897 12.1272C22.5914 12.0732 23.3202 11.9923 23.9949 11.9113C23.6441 11.8843 23.2662 11.8573 22.9153 11.8303C21.5658 11.7494 20.1893 11.6684 18.9747 11.4795H18.9207L18.9477 11.4525C19.0557 11.2905 19.2446 11.2905 19.4066 11.2905H19.5685L20.8641 11.1286C21.9437 10.9936 23.0503 10.8317 24.0759 10.6967C23.4551 10.6428 22.8344 10.5888 22.2406 10.5348C21.9167 10.5078 21.6198 10.4808 21.2689 10.4538L20.4592 10.3728C19.1637 10.2379 17.8141 10.076 16.9504 10.6158C16.7345 10.7507 16.5456 10.9666 16.3837 11.1826C16.1677 11.4255 15.9788 11.6684 15.7359 11.7494C15.304 11.8573 14.6563 11.8303 14.0085 11.7763C13.7116 11.7494 13.4147 11.7224 13.1448 11.7224C12.8479 11.7224 12.2271 11.6414 11.4174 11.5604C8.50245 11.1016 3.0234 10.5348 0.891157 11.4525C0.135426 11.7763 -0.188459 12.2622 0.135426 13.0449C0.756205 14.5294 6.91002 14.0166 11.4444 13.6387ZM15.7899 13.4498C15.0341 13.3958 13.3877 13.5307 11.4444 13.6927C6.91002 14.0705 0.729215 14.5834 0.0814451 13.0449C-0.26943 12.2352 0.0814451 11.7224 0.864167 11.3715C3.0234 10.4538 8.50245 11.0206 11.4444 11.3175C12.2541 11.3985 12.8749 11.4795 13.1718 11.4795C13.4417 11.4795 13.7386 11.5064 14.0355 11.5334C14.6833 11.5874 15.304 11.6144 15.7359 11.5064C15.9518 11.4525 16.1407 11.2095 16.3567 10.9666C16.5456 10.7507 16.7075 10.5348 16.9504 10.3998C17.8411 9.86003 19.1907 10.022 20.5132 10.1569L21.3229 10.2379C21.6198 10.2649 21.9707 10.2919 22.2945 10.3189C22.9963 10.3728 23.6981 10.4538 24.4268 10.4808L24.7237 10.5078L24.4538 10.5618C23.3472 10.7237 22.1596 10.8857 20.972 11.0476L19.6765 11.2096H19.5145C19.3796 11.2096 19.2176 11.2096 19.1097 11.3175C20.3243 11.5064 21.6738 11.5874 23.0233 11.6684C23.4821 11.6954 23.914 11.7224 24.3728 11.7494L24.6427 11.7763L24.3728 11.8033C23.6171 11.9113 22.8074 11.9923 21.9977 12.0732C20.972 12.1812 19.9194 12.2622 18.9747 12.4511C19.0557 12.5591 19.2446 12.5591 19.4066 12.5591H19.5415C19.8384 12.5861 20.1353 12.6131 20.4322 12.6131C21.7278 12.721 23.0773 12.802 24.3728 12.883L24.6427 12.9099L24.3728 12.9639C23.6171 13.0719 22.8344 13.1529 22.0516 13.2338C21.053 13.3418 20.0543 13.4228 19.1367 13.6117C19.1907 13.7736 19.3796 13.7466 19.5415 13.7466H19.6765C20.4592 13.8276 21.2689 13.9356 22.0786 14.0435C22.8883 14.1245 23.725 14.2325 24.5078 14.2865V14.3404C23.725 14.3944 22.8344 14.5294 21.9437 14.6373C20.8641 14.7723 19.7575 14.9342 18.7588 14.9882C18.0571 15.0422 17.4903 14.8533 17.0314 14.5564C16.4916 14.2865 16.1137 13.8816 15.7899 13.4498Z" fill="#CCCCCC"/>
</g>
<defs>
<clipPath id="clip0_622_1898">
<rect width="82.6446" height="32" fill="white"/>
</clipPath>
</defs>
</svg>
