<svg width="96" height="32" viewBox="0 0 96 32" fill="none" xmlns="http://www.w3.org/2000/svg">
<path fill-rule="evenodd" clip-rule="evenodd" d="M1.3344 25.1537L9.04011 25.0517L9.06206 25.0074L0.758575 23.6989L0.716205 23.5411L7.67865 23.4431C7.67865 23.4431 7.62097 23.307 7.44332 22.9693L0.279743 21.8462L0.25524 21.6884L6.95735 21.5934L6.8527 21.1331L0.0566634 20.1341L0.0490061 19.9397L6.65106 19.8462L6.60001 19.3673L0 18.2995L0.0112306 18.1407L6.60205 18.0472C6.56785 17.8618 6.62298 17.487 6.62298 17.487L0.104649 16.5101L0.133746 16.3503L6.71997 16.2749C6.71895 16.1825 6.75724 15.8423 6.75724 15.8423L0.346617 14.7091L0.375714 14.5498L7.02422 14.4553C7.02422 14.4553 7.06761 14.0966 7.14367 13.9101L0.735603 12.9473L0.782567 12.7875L7.44485 12.6931C7.44485 12.6931 7.58319 12.3132 7.65977 12.173L1.28131 11.2258L1.32827 11.084L8.10286 10.9881C8.10286 10.9881 8.29889 10.5866 8.34432 10.478L2.01487 9.51372L2.08021 9.37151L8.97528 9.27402C8.97528 9.27402 9.16007 8.91674 9.32955 8.667L3.00673 7.70319L3.07156 7.57857L10.1627 7.49566C10.1627 7.49566 10.376 7.16501 10.5624 6.99265L4.17063 6.04995L4.28957 5.90724L11.5394 5.80473C11.5394 5.80473 11.8222 5.50122 12.0244 5.34394L5.73985 4.39973L5.84092 4.25702L13.2281 4.14647L13.711 3.72487L7.98647 2.5073L7.97269 2.50881C10.4296 0.976168 13.4787 0.0500526 17.1527 0.00181215C23.9824 -0.0891412 29.7493 3.23894 29.9417 11.0534L21.0624 11.171C20.7684 8.40067 19.0905 7.45646 16.6999 7.48812C11.5348 7.55646 9.30402 13.0076 9.37447 18.1769C9.42297 21.706 10.9917 24.0391 14.7907 23.9879C17.3094 23.9547 19.4315 23.0447 20.3376 20.5949L16.0689 20.6507L17.3472 14.2036L29.8116 14.0383L26.5374 30.5983L20.6035 30.6767L20.82 27.7747L20.7337 27.6913C18.8061 30.3224 15.7897 31.4551 12.5456 31.4983C6.20439 31.5827 2.9225 28.4948 1.34359 25.1788L1.3344 25.1537ZM47.0745 14.2679C46.1648 13.7393 45.0377 13.375 43.5864 13.3915C41.7793 13.4116 39.8165 14.1347 39.843 16.3714C39.8798 19.5246 46.3961 19.4779 46.4538 24.4095C46.4869 27.2391 44.5257 30.4692 39.9262 30.5209C37.7087 30.5465 36.115 30.0792 34.5749 29.5033L35.4223 27.0144C36.5525 27.7024 38.1191 28.1697 39.4607 28.1551C42.3628 28.122 43.5741 26.3295 43.5553 24.7662C43.5108 20.9397 37.0027 21.6874 36.9415 16.4593C36.9011 13.0363 40.0544 11.0599 43.203 11.0242C44.7906 11.0062 46.3547 11.285 47.8127 11.8614L47.0745 14.2679ZM58.0177 29.7496C56.6797 30.0883 55.2866 30.3465 53.891 30.3621C50.4963 30.4003 47.441 29.0883 47.3839 24.2371C47.3395 20.4372 49.9985 16.0136 54.9267 15.9573C58.2939 15.9191 60.2061 17.892 60.2449 21.1532C60.2551 22.0688 60.1551 22.8522 60.0275 23.6617L50.1987 23.7738C50.1476 24.0589 50.1235 24.3481 50.1267 24.6376C50.1604 27.521 51.9772 28.3355 54.4688 28.3074C55.7552 28.2928 57.1478 27.9541 58.4011 27.427L58.0177 29.7496ZM57.596 21.803C57.6471 21.3985 57.6701 21.0748 57.666 20.7507C57.6481 19.1342 56.621 17.9869 54.6771 18.0086C52.5693 18.0322 50.9751 19.8568 50.4519 21.8844L57.596 21.803ZM61.9081 18.303C62.0117 17.7357 62.1674 17.0066 62.2669 16.197L64.6769 16.1694L64.2639 18.3573H64.3186C65.1241 17.0538 66.6157 15.8242 69.0522 15.7965C69.2983 15.7935 69.7373 15.8428 70.2325 16.0262L69.6832 18.2689C69.1885 18.0864 68.7771 18.0096 68.5857 18.0126C65.41 18.0478 63.8887 21.4613 63.5528 23.1632L62.1807 29.944L59.6073 29.9737L61.9081 18.303ZM71.0273 16.0965L73.6006 16.0679L70.8047 29.8456L68.2314 29.8752L71.0273 16.0965ZM74.4138 12.986L71.5112 13.0187L72.0794 10.1549L74.982 10.1223L74.4138 12.986ZM83.8302 29.4551C82.4922 29.7938 81.0991 30.0521 79.7034 30.0677C76.3087 30.1069 73.2535 28.7938 73.1968 23.9426C73.1519 20.1427 75.811 15.7191 80.7392 15.6629C84.1063 15.6252 86.0186 17.5985 86.0574 20.8588C86.0676 21.7753 85.9675 22.5577 85.8399 23.3683L76.0111 23.4793C75.9601 23.7645 75.936 24.0536 75.9391 24.3431C75.9728 27.2265 77.7896 28.0411 80.2813 28.0129C81.5677 27.9993 82.9603 27.6597 84.2135 27.1335L83.8302 29.4551ZM83.4085 21.5085C83.4595 21.104 83.4825 20.7804 83.4784 20.4563C83.4595 18.8397 82.4335 17.6925 80.4896 17.7141C78.3818 17.7387 76.7876 19.5623 76.2643 21.5899L83.4085 21.5085Z" fill="#CCCCCC"/>
<path fill-rule="evenodd" clip-rule="evenodd" d="M94.7609 18.2527C94.0452 17.91 92.9186 17.5723 91.9604 17.5834C90.8379 17.5959 89.3631 17.909 89.3789 19.2843C89.407 21.628 94.1718 21.6818 94.2167 25.5089C94.2555 28.8244 91.1738 29.9369 88.9843 29.9616C86.7668 29.9872 85.9414 29.6997 84.8975 29.3611L85.364 27.1732C86.3819 27.5656 87.455 27.9309 88.5765 27.9179C89.9731 27.9023 91.5 27.3184 91.4806 25.7556C91.4535 23.4109 86.6857 23.1144 86.6448 19.6381C86.6111 16.7271 89.554 15.5618 91.8542 15.5357C93.0855 15.5216 94.3489 15.8035 95.5042 16.2487L94.7609 18.2527Z" fill="#CCCCCC"/>
</svg>
